<svg width="16" height="20" viewBox="0 0 16 20" fill="none" xmlns="http://www.w3.org/2000/svg">
<rect width="16" height="20" fill="#BCBCBC"/>
<g id="Tablet">
<g id="Tablet_2" clip-path="url(#clip0_0_1)">
<rect width="1305" height="1467" transform="translate(-1124 -72)" fill="white"/>
<g id="Frame 26">
<circle id="Ellipse 23" cx="8" cy="10" r="23" fill="#5928E5"/>
<path id="Vector" d="M5.91956 12.6799C7.3325 12.5606 8.75312 12.5606 10.1661 12.6799C10.9387 12.7309 11.7061 12.842 12.4612 13.0123C14.0945 13.3361 15.1604 13.9751 15.6074 14.9124C15.9646 15.6912 15.9551 16.5868 15.5816 17.358C15.126 18.2953 14.0601 18.9344 12.4011 19.2667C11.6485 19.4335 10.884 19.5418 10.1145 19.5905C9.26347 19.6842 8.54139 19.6842 7.87089 19.6842H7.6044C7.22456 19.6437 6.9366 19.3259 6.9366 18.9471C6.9366 18.5684 7.22456 18.2506 7.6044 18.2101L8.19257 18.2099C8.78208 18.2032 9.37522 18.176 9.96835 18.1249C10.6681 18.0797 11.3634 17.9829 12.0486 17.8352C13.2263 17.5795 13.9656 17.2131 14.1977 16.7274C14.3782 16.3559 14.3782 15.9231 14.1977 15.5515C13.9656 15.0573 13.2263 14.6739 12.0744 14.4438C11.3786 14.289 10.6715 14.1893 9.95975 14.1456C8.63007 14.0262 7.29222 14.0262 5.96254 14.1456C5.25997 14.1907 4.56175 14.2875 3.87367 14.4353C2.69599 14.6909 1.96532 15.0573 1.72463 15.543C1.63935 15.7275 1.59536 15.928 1.59569 16.131C1.5952 16.3366 1.63917 16.54 1.72463 16.7274C2.13377 17.2813 2.75627 17.6423 3.44386 17.7244L3.54361 17.751C3.76983 17.8284 3.9474 18.0097 4.01657 18.2411C4.09563 18.5056 4.02004 18.7917 3.82036 18.9838C3.62068 19.1759 3.32992 19.2422 3.06563 19.1559C1.95738 18.9768 0.985371 18.322 0.409415 17.3665C0.0393097 16.5926 0.0393097 15.6949 0.409415 14.921C0.865011 13.9581 1.93094 13.3361 3.5728 13.0037C4.34582 12.838 5.13026 12.7298 5.91956 12.6799ZM5.99845 0.710144C7.95571 -0.0925595 10.2081 0.352979 11.7046 1.83888C13.2012 3.32477 13.6469 5.55818 12.8339 7.49701C12.0209 9.43585 10.1094 10.698 7.99123 10.6945C5.10334 10.6898 2.76476 8.36789 2.76476 5.50524L2.76962 5.28111C2.85681 3.27179 4.11108 1.48418 5.99845 0.710144ZM7.99123 1.79859C6.99801 1.79634 6.04469 2.18586 5.34157 2.88123C4.63845 3.57661 4.24329 4.5207 4.24329 5.50524C4.23983 7.00866 5.15077 8.36595 6.551 8.94368C7.95122 9.5214 9.56468 9.20565 10.6384 8.14379C11.712 7.08194 12.0343 5.48331 11.4547 4.09401C10.8751 2.7047 9.50791 1.79859 7.99123 1.79859Z" fill="white"/>
</g>
</g>
</g>
<defs>
<clipPath id="clip0_0_1">
<rect width="1305" height="1467" fill="white" transform="translate(-1124 -72)"/>
</clipPath>
</defs>
</svg>
